<svg width="186" height="76" viewBox="0 0 186 76" fill="none" xmlns="http://www.w3.org/2000/svg">
<path d="M64 35.5L66.088 31.5138L63.8696 30.3517L61.7129 31.6246L64 35.5ZM95.5 52L93.412 55.9862L95.5677 57.1154L97.6928 55.9296L95.5 52ZM186 1.5L134.044 0.740045L159.364 46.1152L186 1.5ZM3 71.5L5.28714 75.3754L66.2871 39.3754L64 35.5L61.7129 31.6246L0.712859 67.6246L3 71.5ZM64 35.5L61.912 39.4862L93.412 55.9862L95.5 52L97.588 48.0138L66.088 31.5138L64 35.5ZM95.5 52L97.6928 55.9296L152.826 25.1645L150.634 21.2349L148.441 17.3053L93.3072 48.0704L95.5 52Z" fill="url(#paint0_linear_4_90)"/>
<defs>
<linearGradient id="paint0_linear_4_90" x1="3" y1="36.5" x2="186" y2="36.5" gradientUnits="userSpaceOnUse">
<stop stop-color="#01091B"/>
<stop offset="1" stop-color="#00DBDB"/>
</linearGradient>
</defs>
</svg>
