<svg width="159" height="92" viewBox="0 0 159 92" fill="none" xmlns="http://www.w3.org/2000/svg">
<path d="M51.25 27L54.671 24.0766L54.0277 23.3237L53.1278 22.9105L51.25 27ZM74.75 54.5L71.329 57.4234L72.2099 58.4543L73.5138 58.8269L74.75 54.5ZM158.75 78.5L122.619 41.1564L108.344 91.1187L158.75 78.5ZM2.25 4.5L0.37218 8.58947L49.3722 31.0895L51.25 27L53.1278 22.9105L4.12782 0.410526L2.25 4.5ZM51.25 27L47.829 29.9234L71.329 57.4234L74.75 54.5L78.171 51.5766L54.671 24.0766L51.25 27ZM74.75 54.5L73.5138 58.8269L118.572 71.7007L119.808 67.3738L121.045 63.0469L75.9862 50.1731L74.75 54.5Z" fill="url(#paint0_linear_4_107)"/>
<defs>
<linearGradient id="paint0_linear_4_107" x1="2.25" y1="41.5" x2="158.75" y2="41.5" gradientUnits="userSpaceOnUse">
<stop stop-color="#01091B"/>
<stop offset="1" stop-color="#00DBDB"/>
</linearGradient>
</defs>
</svg>
