<svg width="80" height="67" viewBox="0 0 80 67" fill="none" xmlns="http://www.w3.org/2000/svg">
<path d="M31.9141 0V13.4473C27.6953 13.6816 24.502 14.4727 22.334 15.8203C20.166 17.1094 18.6426 19.248 17.7637 22.2363C16.8848 25.166 16.4453 29.3848 16.4453 34.8926H31.9141V66.9727H0.185547V36.4746C0.185547 23.877 2.85156 14.6484 8.18359 8.78906C13.5742 2.92969 21.4844 0 31.9141 0ZM79.8145 0V13.4473C75.5957 13.6816 72.4023 14.4434 70.2344 15.7324C68.0664 16.9629 66.4844 19.1016 65.4883 22.1484C64.5508 25.1367 64.082 29.3848 64.082 34.8926H79.8145V66.9727H47.9102V36.4746C47.9102 23.877 50.5762 14.6484 55.9082 8.78906C61.2402 2.92969 69.209 0 79.8145 0Z" fill="url(#paint0_linear_3_8)"/>
<defs>
<linearGradient id="paint0_linear_3_8" x1="50.6172" y1="82.7754" x2="48.1372" y2="0.302734" gradientUnits="userSpaceOnUse">
<stop stop-color="#01091B"/>
<stop offset="1" stop-color="#00DBDB"/>
</linearGradient>
</defs>
</svg>
