<?xml version="1.0" encoding="UTF-8"?>
<svg id="_レイヤー_2" data-name="レイヤー 2" xmlns="http://www.w3.org/2000/svg" viewBox="0 0 300.62 47.37">
  <defs>
    <style>
      .cls-1 {
        fill: #fff;
      }
    </style>
  </defs>
  <g id="_レイヤー_1-2" data-name="レイヤー 1">
    <g id="logo-white">
      <path class="cls-1" d="M14.8,47.05c-4.62,0-10.18.2-14.8.33.51-4.67,1.23-11.1,1.23-23.98C1.23,7.49.58,4.6,0,0c4.62.13,10.18.33,14.8.33,4.91,0,9.03-.33,19.5-.33,15.16,0,25.49,3.22,25.49,12.35,0,4.8-2.53,7.88-10.04,9.33,9.6.59,14.59,4.73,14.59,11.63,0,11.76-13.79,14.06-28.38,14.06-10.18,0-16.61-.33-21.16-.33ZM15.31,5.59l-.07,14.06h19.06c7,0,10.4-2.3,10.4-7.29,0-4.6-3.32-6.77-10.4-6.77H15.31ZM15.23,24.84l.07,16.95h20.65c7.73,0,12.64-2.43,12.64-8.48,0-6.57-5.7-8.48-14.3-8.48H15.23Z"/>
      <path class="cls-1" d="M83.04,46.45c-3.97,0-8.66.22-12.71.36.51-4.55,1.08-10.69,1.08-23.03,0-15.24-.51-17.91-1.08-22.46,2.53.14,5.2.36,7.65.36s5.2-.22,7.65-.36c-.51,4.55-1.08,7.22-1.08,22.46,0,7.8.22,13.07.43,16.97h20.51c5.13,0,7.36-.14,12.49-5.56l.87.36-5.13,10.25c-.43.79-.79,1.01-2.09,1.01-21.01,0-24.77-.36-28.59-.36Z"/>
      <path class="cls-1" d="M189.06,46.81v-1.01c11.7-12.92,22.82-25.85,33.36-38.77h-21.37c-4.26,0-6.5,1.3-8.45,2.67l-.87-.36,1.66-8.01h49.17v1.01c-11.7,12.85-22.82,25.63-33.36,38.41h23.61c5.05,0,7.44-.72,10.25-2.6l.94.36-2.96,8.3h-51.99Z"/>
      <path class="cls-1" d="M160.34,5.29c-1.81-3.32-2.96-3.97-6.35-3.97-1.37,0-3.75.36-5.99.36-2.6,0-6.43-.36-9.03-.36v.94c3.47.43,4.77.79,5.85,2.53.07.22.22.43.36.65-7.94,12.42-19.93,30.54-28.45,41.37,1.16-.22,3.32-.36,5.56-.36s4.48.14,5.63.36c1.44-3.32,3.39-7.08,5.56-11.05h24.5l-3.01-6.06h-18.03c3.9-6.64,8.09-13.36,11.55-18.85,3.97,6.57,7.51,12.71,10.76,18.85h-.02c.54,1.02,1.08,2.06,1.62,3.13.51,1.02,1,2.02,1.47,3.01,1.79,3.66,3.51,7.31,5.09,10.97,4.04-.22,6.43-.36,8.81-.36s4.84.14,8.88.36c-10.76-15.74-16.03-25.85-24.77-41.52Z"/>
      <g>
        <path class="cls-1" d="M277.45,20.6h-10.6c.04,1.02.07,2.07.08,3.15,0,1,0,1.97-.03,2.92h10.55c3.03,0,9.17.22,11.55.87-.22-1.66-.29-2.6-.29-3.9,0-1.23.07-2.31.29-3.9-2.38.58-8.52.87-11.55.87Z"/>
        <path class="cls-1" d="M299.83,35.04c-4.84,4.98-7.94,5.7-14.15,5.7h-21.16c-.06-4.21-.29-8.43-.34-12.64-.05-1.37-.09-2.77-.08-4.23,0-1.13.04-2.21.08-3.28h-.02c0-4.4.29-8.81.36-13.21h23.76c3.9,0,6.64.65,8.3,3.39l.79-.22-1.73-8.16c-.22-.79-.43-1.08-1.23-1.08-20.79,0-25.63.36-30.61.36-4.48,0-9.82-.22-14.3-.36.58,4.55,1.08,7.22,1.08,22.46,0,12.35-.58,18.48-1.08,23.03,4.48-.14,9.75-.36,14.15-.36,5.2,0,10.04.36,29.89.36,1.37,0,1.66-.07,2.24-1.3l4.84-10.11-.79-.36Z"/>
      </g>
    </g>
  </g>
</svg>