<svg width="25" height="24" viewBox="0 0 25 24" fill="none" xmlns="http://www.w3.org/2000/svg">
<path d="M17 2.00007C16.2815 2.00227 15.577 2.19857 14.9609 2.56823C14.3448 2.93788 13.84 3.46715 13.5 4.10007C14.1592 4.23616 14.7839 4.50495 15.336 4.89006C15.5183 4.61588 15.7656 4.39096 16.0557 4.23528C16.3459 4.07959 16.67 3.99795 16.9992 3.9976C17.3285 3.99726 17.6528 4.07822 17.9433 4.2333C18.2337 4.38838 18.4814 4.61278 18.6644 4.88657C18.8473 5.16037 18.9598 5.4751 18.9918 5.80281C19.0239 6.13053 18.9746 6.46109 18.8482 6.76515C18.7218 7.06922 18.5223 7.33738 18.2674 7.54582C18.0125 7.75427 17.7101 7.89656 17.387 7.96005C17.5314 8.61838 17.5365 9.29962 17.402 9.96004C18.4247 9.86276 19.3704 9.37467 20.0422 8.59745C20.714 7.82022 21.06 6.81379 21.0082 5.78779C20.9564 4.76179 20.5107 3.79534 19.764 3.08975C19.0174 2.38415 18.0273 1.99383 17 2.00007Z" fill="white"/>
<path d="M12.5 13C11.7089 13 10.9355 12.7654 10.2777 12.3259C9.61992 11.8864 9.10723 11.2617 8.80448 10.5308C8.50173 9.79988 8.42252 8.99561 8.57686 8.21969C8.7312 7.44377 9.11216 6.73104 9.67157 6.17163C10.231 5.61222 10.9437 5.23126 11.7196 5.07692C12.4956 4.92258 13.2998 5.00179 14.0307 5.30454C14.7616 5.60729 15.3864 6.11998 15.8259 6.77778C16.2654 7.43557 16.5 8.20893 16.5 9.00005C16.5 10.0609 16.0786 11.0783 15.3284 11.8285C14.5783 12.5786 13.5609 13 12.5 13ZM12.5 7.00006C12.1044 7.00006 11.7178 7.11735 11.3889 7.33712C11.06 7.55688 10.8036 7.86923 10.6522 8.23468C10.5009 8.60014 10.4613 9.00227 10.5384 9.39023C10.6156 9.77819 10.8061 10.1346 11.0858 10.4143C11.3655 10.694 11.7219 10.8844 12.1098 10.9616C12.4978 11.0388 12.8999 10.9992 13.2654 10.8478C13.6308 10.6964 13.9432 10.4401 14.1629 10.1112C14.3827 9.78229 14.5 9.39561 14.5 9.00005C14.5 8.46962 14.2893 7.96091 13.9142 7.58584C13.5391 7.21077 13.0304 7.00006 12.5 7.00006Z" fill="white"/>
<path d="M17.5 22H7.5C7.23478 22 6.98043 21.8946 6.79289 21.7071C6.60536 21.5196 6.5 21.2652 6.5 21V19C6.50159 17.6744 7.02888 16.4036 7.96622 15.4662C8.90356 14.5289 10.1744 14.0016 11.5 14H13.5C14.8256 14.0016 16.0964 14.5289 17.0338 15.4662C17.9711 16.4036 18.4984 17.6744 18.5 19V21C18.5 21.2652 18.3946 21.5196 18.2071 21.7071C18.0196 21.8946 17.7652 22 17.5 22ZM8.5 20H16.5V19C16.5 18.2044 16.1839 17.4413 15.6213 16.8787C15.0587 16.3161 14.2956 16 13.5 16H11.5C10.7044 16 9.94129 16.3161 9.37868 16.8787C8.81607 17.4413 8.5 18.2044 8.5 19V20Z" fill="white"/>
<path d="M7.5 9.00005C7.50102 8.65076 7.53856 8.30253 7.612 7.96105C7.2889 7.89756 6.98647 7.75527 6.73157 7.54682C6.47667 7.33838 6.27718 7.07022 6.15081 6.76615C6.02444 6.46209 5.9751 6.13153 6.00716 5.80381C6.03923 5.4761 6.15172 5.16137 6.33464 4.88757C6.51756 4.61378 6.76525 4.38938 7.05573 4.2343C7.3462 4.07922 7.67047 3.99826 7.99975 3.9986C8.32903 3.99895 8.65314 4.08059 8.94328 4.23628C9.23343 4.39196 9.48066 4.61688 9.663 4.89106C10.2153 4.50547 10.8403 4.23634 11.5 4.10007C11.1737 3.4937 10.6959 2.98216 10.1132 2.61526C9.53043 2.24835 8.86263 2.03859 8.17478 2.00638C7.48692 1.97418 6.80245 2.12063 6.188 2.43148C5.57354 2.74234 5.05005 3.207 4.66849 3.78022C4.28692 4.35345 4.06028 5.01571 4.01065 5.70252C3.96101 6.38934 4.09005 7.07731 4.38522 7.69944C4.68039 8.32158 5.13163 8.85669 5.69499 9.25267C6.25836 9.64864 6.91466 9.892 7.6 9.95904C7.53569 9.64337 7.5022 9.3222 7.5 9.00005Z" fill="white"/>
<path d="M17.5 11H17.071C16.662 11.9203 15.9875 12.6975 15.134 13.232C15.176 13.244 15.214 13.265 15.257 13.278C15.6462 13.0962 16.0704 13.0013 16.5 13H17.5C18.2956 13 19.0587 13.3161 19.6213 13.8787C20.1839 14.4413 20.5 15.2044 20.5 16V17H19.153C19.382 17.642 19.4993 18.3184 19.5 19H21.5C21.7652 19 22.0196 18.8947 22.2071 18.7071C22.3946 18.5196 22.5 18.2652 22.5 18V16C22.4984 14.6744 21.9711 13.4036 21.0338 12.4663C20.0964 11.5289 18.8256 11.0016 17.5 11Z" fill="white"/>
<path d="M5.847 17H4.5V16C4.5 15.2044 4.81607 14.4413 5.37868 13.8787C5.94129 13.3161 6.70435 13 7.5 13H8.5C8.92993 13.0013 9.35442 13.0962 9.744 13.278C9.786 13.265 9.824 13.244 9.866 13.232C9.01249 12.6975 8.33802 11.9203 7.929 11H7.5C6.17441 11.0016 4.90356 11.5289 3.96622 12.4663C3.02888 13.4036 2.50159 14.6744 2.5 16V18C2.5 18.2652 2.60536 18.5196 2.79289 18.7071C2.98043 18.8947 3.23478 19 3.5 19H5.5C5.50065 18.3184 5.61801 17.642 5.847 17Z" fill="white"/>
</svg>
