<svg width="33" height="33" viewBox="0 0 33 33" fill="none" xmlns="http://www.w3.org/2000/svg">
<mask id="mask0_1_192" style="mask-type:alpha" maskUnits="userSpaceOnUse" x="0" y="0" width="33" height="33">
<rect x="0.5" y="0.5" width="32" height="32" fill="#D9D9D9"/>
</mask>
<g mask="url(#mask0_1_192)">
<path d="M16.5 21.1666C17.2334 21.1666 17.8611 20.9055 18.3834 20.3833C18.9056 19.8611 19.1667 19.2333 19.1667 18.5C19.1667 17.7666 18.9056 17.1388 18.3834 16.6166C17.8611 16.0944 17.2334 15.8333 16.5 15.8333C15.7667 15.8333 15.1389 16.0944 14.6167 16.6166C14.0945 17.1388 13.8334 17.7666 13.8334 18.5C13.8334 19.2333 14.0945 19.8611 14.6167 20.3833C15.1389 20.9055 15.7667 21.1666 16.5 21.1666ZM5.83335 28.5C5.10002 28.5 4.47224 28.2388 3.95002 27.7166C3.4278 27.1944 3.16669 26.5666 3.16669 25.8333V11.1666C3.16669 10.4333 3.4278 9.80552 3.95002 9.28329C4.47224 8.76107 5.10002 8.49996 5.83335 8.49996H11.1667V5.83329C11.1667 5.09996 11.4278 4.47218 11.95 3.94996C12.4722 3.42774 13.1 3.16663 13.8334 3.16663H19.1667C19.9 3.16663 20.5278 3.42774 21.05 3.94996C21.5722 4.47218 21.8334 5.09996 21.8334 5.83329V8.49996H27.1667C27.9 8.49996 28.5278 8.76107 29.05 9.28329C29.5722 9.80552 29.8334 10.4333 29.8334 11.1666V25.8333C29.8334 26.5666 29.5722 27.1944 29.05 27.7166C28.5278 28.2388 27.9 28.5 27.1667 28.5H5.83335ZM5.83335 25.8333H27.1667V11.1666H5.83335V25.8333ZM13.8334 8.49996H19.1667V5.83329H13.8334V8.49996Z" fill="white"/>
</g>
</svg>
