<svg width="27" height="25" viewBox="0 0 27 25" fill="none" xmlns="http://www.w3.org/2000/svg">
<path d="M16.1667 24.5C15.0556 24.5 14.1111 24.1111 13.3333 23.3333C12.5556 22.5556 12.1667 21.6111 12.1667 20.5C12.1667 19.3889 12.5556 18.4444 13.3333 17.6667C14.1111 16.8889 15.0556 16.5 16.1667 16.5C17.2778 16.5 18.2222 16.8889 19 17.6667C19.7778 18.4444 20.1667 19.3889 20.1667 20.5C20.1667 21.6111 19.7778 22.5556 19 23.3333C18.2222 24.1111 17.2778 24.5 16.1667 24.5ZM16.1667 21.8333C16.5444 21.8333 16.8611 21.7056 17.1167 21.45C17.3722 21.1944 17.5 20.8778 17.5 20.5C17.5 20.1222 17.3722 19.8056 17.1167 19.55C16.8611 19.2944 16.5444 19.1667 16.1667 19.1667C15.7889 19.1667 15.4722 19.2944 15.2167 19.55C14.9611 19.8056 14.8333 20.1222 14.8333 20.5C14.8333 20.8778 14.9611 21.1944 15.2167 21.45C15.4722 21.7056 15.7889 21.8333 16.1667 21.8333ZM18.8333 15.1667C16.7889 15.1667 15.0556 14.4556 13.6333 13.0333C12.2111 11.6111 11.5 9.87778 11.5 7.83333C11.5 5.78889 12.2111 4.05556 13.6333 2.63333C15.0556 1.21111 16.7889 0.5 18.8333 0.5C20.8778 0.5 22.6111 1.21111 24.0333 2.63333C25.4556 4.05556 26.1667 5.78889 26.1667 7.83333C26.1667 9.87778 25.4556 11.6111 24.0333 13.0333C22.6111 14.4556 20.8778 15.1667 18.8333 15.1667ZM18.8333 12.5C20.1444 12.5 21.25 12.05 22.15 11.15C23.05 10.25 23.5 9.14444 23.5 7.83333C23.5 6.52222 23.05 5.41667 22.15 4.51667C21.25 3.61667 20.1444 3.16667 18.8333 3.16667C17.5222 3.16667 16.4167 3.61667 15.5167 4.51667C14.6167 5.41667 14.1667 6.52222 14.1667 7.83333C14.1667 9.14444 14.6167 10.25 15.5167 11.15C16.4167 12.05 17.5222 12.5 18.8333 12.5ZM6.16666 20.5C4.7 20.5 3.44444 19.9778 2.4 18.9333C1.35555 17.8889 0.833328 16.6333 0.833328 15.1667C0.833328 13.7 1.35555 12.4444 2.4 11.4C3.44444 10.3556 4.7 9.83333 6.16666 9.83333C7.63333 9.83333 8.88888 10.3556 9.93333 11.4C10.9778 12.4444 11.5 13.7 11.5 15.1667C11.5 16.6333 10.9778 17.8889 9.93333 18.9333C8.88888 19.9778 7.63333 20.5 6.16666 20.5ZM6.16666 17.8333C6.9 17.8333 7.52777 17.5722 8.04999 17.05C8.57222 16.5278 8.83333 15.9 8.83333 15.1667C8.83333 14.4333 8.57222 13.8056 8.04999 13.2833C7.52777 12.7611 6.9 12.5 6.16666 12.5C5.43333 12.5 4.80555 12.7611 4.28333 13.2833C3.76111 13.8056 3.49999 14.4333 3.49999 15.1667C3.49999 15.9 3.76111 16.5278 4.28333 17.05C4.80555 17.5722 5.43333 17.8333 6.16666 17.8333Z" fill="white"/>
</svg>
