<svg width="32" height="33" viewBox="0 0 32 33" fill="none" xmlns="http://www.w3.org/2000/svg">
<mask id="mask0_1_179" style="mask-type:alpha" maskUnits="userSpaceOnUse" x="0" y="0" width="32" height="33">
<rect y="0.5" width="32" height="32" fill="#D9D9D9"/>
</mask>
<g mask="url(#mask0_1_179)">
<path d="M25.3334 28.5C24.4667 28.5 23.6889 28.25 23 27.75C22.3111 27.25 21.8334 26.6111 21.5667 25.8333H14.6667C13.2 25.8333 11.9445 25.3111 10.9 24.2667C9.85558 23.2222 9.33335 21.9667 9.33335 20.5C9.33335 19.0333 9.85558 17.7778 10.9 16.7333C11.9445 15.6889 13.2 15.1667 14.6667 15.1667H17.3334C18.0667 15.1667 18.6945 14.9056 19.2167 14.3833C19.7389 13.8611 20 13.2333 20 12.5C20 11.7667 19.7389 11.1389 19.2167 10.6167C18.6945 10.0944 18.0667 9.83333 17.3334 9.83333H10.4334C10.1445 10.6111 9.66113 11.25 8.98335 11.75C8.30558 12.25 7.53335 12.5 6.66669 12.5C5.55558 12.5 4.61113 12.1111 3.83335 11.3333C3.05558 10.5556 2.66669 9.61111 2.66669 8.5C2.66669 7.38889 3.05558 6.44444 3.83335 5.66667C4.61113 4.88889 5.55558 4.5 6.66669 4.5C7.53335 4.5 8.30558 4.75 8.98335 5.25C9.66113 5.75 10.1445 6.38889 10.4334 7.16667H17.3334C18.8 7.16667 20.0556 7.68889 21.1 8.73333C22.1445 9.77778 22.6667 11.0333 22.6667 12.5C22.6667 13.9667 22.1445 15.2222 21.1 16.2667C20.0556 17.3111 18.8 17.8333 17.3334 17.8333H14.6667C13.9334 17.8333 13.3056 18.0944 12.7834 18.6167C12.2611 19.1389 12 19.7667 12 20.5C12 21.2333 12.2611 21.8611 12.7834 22.3833C13.3056 22.9056 13.9334 23.1667 14.6667 23.1667H21.5667C21.8556 22.3889 22.3389 21.75 23.0167 21.25C23.6945 20.75 24.4667 20.5 25.3334 20.5C26.4445 20.5 27.3889 20.8889 28.1667 21.6667C28.9445 22.4444 29.3334 23.3889 29.3334 24.5C29.3334 25.6111 28.9445 26.5556 28.1667 27.3333C27.3889 28.1111 26.4445 28.5 25.3334 28.5ZM6.66669 9.83333C7.04446 9.83333 7.36113 9.70556 7.61669 9.45C7.87224 9.19444 8.00002 8.87778 8.00002 8.5C8.00002 8.12222 7.87224 7.80556 7.61669 7.55C7.36113 7.29444 7.04446 7.16667 6.66669 7.16667C6.28891 7.16667 5.97224 7.29444 5.71669 7.55C5.46113 7.80556 5.33335 8.12222 5.33335 8.5C5.33335 8.87778 5.46113 9.19444 5.71669 9.45C5.97224 9.70556 6.28891 9.83333 6.66669 9.83333Z" fill="white"/>
</g>
</svg>
