<svg width="33" height="32" viewBox="0 0 33 32" fill="none" xmlns="http://www.w3.org/2000/svg">
<mask id="mask0_1_230" style="mask-type:alpha" maskUnits="userSpaceOnUse" x="0" y="0" width="33" height="32">
<rect x="0.5" width="32" height="32" fill="#D9D9D9"/>
</mask>
<g mask="url(#mask0_1_230)">
<path d="M17.8334 23.3334L22.5 18.6667C22.7445 18.4223 22.9389 18.1334 23.0834 17.8001C23.2278 17.4667 23.3 17.1112 23.3 16.7334C23.3 15.9779 23.0334 15.3334 22.5 14.8001C21.9667 14.2667 21.3222 14.0001 20.5667 14.0001C20.1445 14.0001 19.7278 14.1223 19.3167 14.3667C18.9056 14.6112 18.4111 15.0223 17.8334 15.6001C17.1667 14.9779 16.6445 14.5556 16.2667 14.3334C15.8889 14.1112 15.5 14.0001 15.1 14.0001C14.3445 14.0001 13.7 14.2667 13.1667 14.8001C12.6334 15.3334 12.3667 15.9779 12.3667 16.7334C12.3667 17.1112 12.4389 17.4667 12.5834 17.8001C12.7278 18.1334 12.9222 18.4223 13.1667 18.6667L17.8334 23.3334ZM29.0334 19.0001L19.5 28.5334C19.2334 28.8001 18.9334 29.0001 18.6 29.1334C18.2667 29.2667 17.9334 29.3334 17.6 29.3334C17.2667 29.3334 16.9334 29.2667 16.6 29.1334C16.2667 29.0001 15.9667 28.8001 15.7 28.5334L3.93335 16.7667C3.68891 16.5223 3.50002 16.239 3.36669 15.9167C3.23335 15.5945 3.16669 15.2556 3.16669 14.9001V5.33341C3.16669 4.60008 3.4278 3.9723 3.95002 3.45008C4.47224 2.92786 5.10002 2.66675 5.83335 2.66675H15.4C15.7556 2.66675 16.1 2.73897 16.4334 2.88341C16.7667 3.02786 17.0556 3.2223 17.3 3.46675L29.0334 15.2334C29.3 15.5001 29.4945 15.8001 29.6167 16.1334C29.7389 16.4667 29.8 16.8001 29.8 17.1334C29.8 17.4667 29.7389 17.7945 29.6167 18.1167C29.4945 18.439 29.3 18.7334 29.0334 19.0001ZM17.6 26.6667L27.1334 17.1334L15.3667 5.33341H5.83335V14.8667L17.6 26.6667ZM9.16669 10.6667C9.72224 10.6667 10.1945 10.4723 10.5834 10.0834C10.9722 9.69453 11.1667 9.2223 11.1667 8.66675C11.1667 8.11119 10.9722 7.63897 10.5834 7.25008C10.1945 6.86119 9.72224 6.66675 9.16669 6.66675C8.61113 6.66675 8.13891 6.86119 7.75002 7.25008C7.36113 7.63897 7.16669 8.11119 7.16669 8.66675C7.16669 9.2223 7.36113 9.69453 7.75002 10.0834C8.13891 10.4723 8.61113 10.6667 9.16669 10.6667Z" fill="white"/>
</g>
</svg>
