<svg width="32" height="32" viewBox="0 0 32 32" fill="none" xmlns="http://www.w3.org/2000/svg">
<mask id="mask0_1_226" style="mask-type:alpha" maskUnits="userSpaceOnUse" x="0" y="0" width="32" height="32">
<rect width="32" height="32" fill="#D9D9D9"/>
</mask>
<g mask="url(#mask0_1_226)">
<path d="M15.6 24.0001C13.4667 23.889 11.6667 23.0667 10.2 21.5334C8.73335 20.0001 8.00002 18.1556 8.00002 16.0001C8.00002 13.7779 8.7778 11.889 10.3334 10.3334C11.8889 8.77786 13.7778 8.00008 16 8.00008C18.1556 8.00008 20 8.73342 21.5334 10.2001C23.0667 11.6667 23.8889 13.4667 24 15.6001L21.2 14.7667C20.9111 13.5667 20.2889 12.5834 19.3334 11.8167C18.3778 11.0501 17.2667 10.6667 16 10.6667C14.5334 10.6667 13.2778 11.189 12.2334 12.2334C11.1889 13.2779 10.6667 14.5334 10.6667 16.0001C10.6667 17.2667 11.05 18.3779 11.8167 19.3334C12.5834 20.289 13.5667 20.9112 14.7667 21.2001L15.6 24.0001ZM17.2 29.2668C17 29.3112 16.8 29.3334 16.6 29.3334H16C14.1556 29.3334 12.4222 28.9834 10.8 28.2834C9.1778 27.5834 7.76669 26.6334 6.56669 25.4334C5.36669 24.2334 4.41669 22.8223 3.71669 21.2001C3.01669 19.5779 2.66669 17.8445 2.66669 16.0001C2.66669 14.1556 3.01669 12.4223 3.71669 10.8001C4.41669 9.17786 5.36669 7.76675 6.56669 6.56675C7.76669 5.36675 9.1778 4.41675 10.8 3.71675C12.4222 3.01675 14.1556 2.66675 16 2.66675C17.8445 2.66675 19.5778 3.01675 21.2 3.71675C22.8222 4.41675 24.2334 5.36675 25.4334 6.56675C26.6334 7.76675 27.5834 9.17786 28.2834 10.8001C28.9834 12.4223 29.3334 14.1556 29.3334 16.0001V16.6001C29.3334 16.8001 29.3111 17.0001 29.2667 17.2001L26.6667 16.4001V16.0001C26.6667 13.0223 25.6334 10.5001 23.5667 8.43342C21.5 6.36675 18.9778 5.33341 16 5.33341C13.0222 5.33341 10.5 6.36675 8.43335 8.43342C6.36669 10.5001 5.33335 13.0223 5.33335 16.0001C5.33335 18.9779 6.36669 21.5001 8.43335 23.5667C10.5 25.6334 13.0222 26.6667 16 26.6667H16.4L17.2 29.2668ZM27.3667 30.0001L21.6667 24.3001L20 29.3334L16 16.0001L29.3334 20.0001L24.3 21.6667L30 27.3667L27.3667 30.0001Z" fill="white"/>
</g>
</svg>
