<svg width="33" height="32" viewBox="0 0 33 32" fill="none" xmlns="http://www.w3.org/2000/svg">
<mask id="mask0_1_222" style="mask-type:alpha" maskUnits="userSpaceOnUse" x="0" y="0" width="33" height="32">
<rect x="0.5" width="32" height="32" fill="#D9D9D9"/>
</mask>
<g mask="url(#mask0_1_222)">
<path d="M16.5 28C13.1444 28 10.3056 27.4833 7.98333 26.45C5.66111 25.4167 4.5 24.1556 4.5 22.6667V9.33333C4.5 7.86667 5.67222 6.61111 8.01667 5.56667C10.3611 4.52222 13.1889 4 16.5 4C19.8111 4 22.6389 4.52222 24.9833 5.56667C27.3278 6.61111 28.5 7.86667 28.5 9.33333V22.6667C28.5 24.1556 27.3389 25.4167 25.0167 26.45C22.6944 27.4833 19.8556 28 16.5 28ZM16.5 12.0333C18.4778 12.0333 20.4667 11.75 22.4667 11.1833C24.4667 10.6167 25.5889 10.0111 25.8333 9.36667C25.5889 8.72222 24.4722 8.11111 22.4833 7.53333C20.4944 6.95556 18.5 6.66667 16.5 6.66667C14.4778 6.66667 12.4944 6.95 10.55 7.51667C8.60556 8.08333 7.47778 8.7 7.16667 9.36667C7.47778 10.0333 8.60556 10.6444 10.55 11.2C12.4944 11.7556 14.4778 12.0333 16.5 12.0333ZM16.5 18.6667C17.4333 18.6667 18.3333 18.6222 19.2 18.5333C20.0667 18.4444 20.8944 18.3167 21.6833 18.15C22.4722 17.9833 23.2167 17.7778 23.9167 17.5333C24.6167 17.2889 25.2556 17.0111 25.8333 16.7V12.7C25.2556 13.0111 24.6167 13.2889 23.9167 13.5333C23.2167 13.7778 22.4722 13.9833 21.6833 14.15C20.8944 14.3167 20.0667 14.4444 19.2 14.5333C18.3333 14.6222 17.4333 14.6667 16.5 14.6667C15.5667 14.6667 14.6556 14.6222 13.7667 14.5333C12.8778 14.4444 12.0389 14.3167 11.25 14.15C10.4611 13.9833 9.72222 13.7778 9.03333 13.5333C8.34444 13.2889 7.72222 13.0111 7.16667 12.7V16.7C7.72222 17.0111 8.34444 17.2889 9.03333 17.5333C9.72222 17.7778 10.4611 17.9833 11.25 18.15C12.0389 18.3167 12.8778 18.4444 13.7667 18.5333C14.6556 18.6222 15.5667 18.6667 16.5 18.6667ZM16.5 25.3333C17.5222 25.3333 18.5611 25.2556 19.6167 25.1C20.6722 24.9444 21.6444 24.7389 22.5333 24.4833C23.4222 24.2278 24.1667 23.9389 24.7667 23.6167C25.3667 23.2944 25.7222 22.9667 25.8333 22.6333V19.3667C25.2556 19.6778 24.6167 19.9556 23.9167 20.2C23.2167 20.4444 22.4722 20.65 21.6833 20.8167C20.8944 20.9833 20.0667 21.1111 19.2 21.2C18.3333 21.2889 17.4333 21.3333 16.5 21.3333C15.5667 21.3333 14.6556 21.2889 13.7667 21.2C12.8778 21.1111 12.0389 20.9833 11.25 20.8167C10.4611 20.65 9.72222 20.4444 9.03333 20.2C8.34444 19.9556 7.72222 19.6778 7.16667 19.3667V22.6667C7.27778 23 7.62778 23.3222 8.21667 23.6333C8.80556 23.9444 9.54445 24.2278 10.4333 24.4833C11.3222 24.7389 12.3 24.9444 13.3667 25.1C14.4333 25.2556 15.4778 25.3333 16.5 25.3333Z" fill="white"/>
</g>
</svg>
